<svg width="266" xmlns="http://www.w3.org/2000/svg" viewBox="0 0 442.89 165.48"><defs><style>.cls-1{fill:#009484;}.cls-2{fill:#243444;}</style></defs><g id="Layer_2" data-name="Layer 2"><g id="Graphics"><path class="cls-1" d="M41.37,41.37a41.37,41.37,0,0,1,82.74,0Zm0,82.74A41.37,41.37,0,0,1,82.74,82.74,41.37,41.37,0,0,1,41.37,41.37a41.37,41.37,0,0,0,0,82.74Zm0,0a41.37,41.37,0,0,0,82.74,0ZM82.74,82.74a41.37,41.37,0,0,1,41.37,41.37,41.37,41.37,0,1,0,0-82.74A41.37,41.37,0,0,1,82.74,82.74Z"/><path class="cls-2" d="M269.76,41.37h25.63V124.1h-19V68.46L252.09,124.1,226.51,68.39V124.1H208.79V41.37h25.33l18.27,42.82ZM363,65.81C363,49.46,350.43,40,335.41,40s-31.13,8.72-31.13,25.66c0,14.69,16.17,22.24,25.4,24.62,5.07,1.34,17.86,2.77,17.86,11.91,0,8.69-8.94,11.06-15.63,11.06-8.62,0-13.68-6-12.94-15.17H302c-.59,20.58,13.4,28.25,29.74,28.63,18.89.43,33.31-7.64,33.31-25.83s-16.36-21.17-29.15-25.32C331,73.91,321.8,72.48,321.8,64c0-7.07,6.1-10.45,12.34-10.45,8,0,12.19,4,12.79,12.22H363m35.75-24.53H372.38v82.65h26.36c21.91,0,44.15-12.66,44.15-41.25S420.65,41.28,398.74,41.28Zm-1.19,67.61-7.3,0V56.47h7.3c20.09,0,27.34,13.1,27.34,26.21S417.64,108.89,397.55,108.89Z"/></g></g></svg>
